HIERARCHY
ROOT Hips
{
	OFFSET -0.001795 -0.223333 0.028219
	CHANNELS 6 Xposition Yposition Zposition Zrotation Yrotation Xrotation 
	JOINT LeftUpLeg
	{
		OFFSET 0.069520 -0.091406 -0.006815
		CHANNELS 3 Zrotation Yrotation Xrotation
		JOINT LeftLeg
		{
			OFFSET 0.034277 -0.375199 -0.004496
			CHANNELS 3 Zrotation Yrotation Xrotation
			JOINT LeftFoot
			{
				OFFSET -0.013596 -0.397961 -0.043693
				CHANNELS 3 Zrotation Yrotation Xrotation
				JOINT LeftToe
				{
					OFFSET 0.026358 -0.055791 0.119288
					CHANNELS 3 Zrotation Yrotation Xrotation
					End Site
					{
						OFFSET 0.000000 0.000000 0.000000
					}
				}
			}
		}
	}
	JOINT RightUpLeg
	{
		OFFSET -0.067670 -0.090522 -0.004320
		CHANNELS 3 Zrotation Yrotation Xrotation
		JOINT RightLeg
		{
			OFFSET -0.038290 -0.382569 -0.008850
			CHANNELS 3 Zrotation Yrotation Xrotation
			JOINT RightFoot
			{
				OFFSET 0.015774 -0.398415 -0.042312
				CHANNELS 3 Zrotation Yrotation Xrotation
				JOINT RightToe
				{
					OFFSET -0.025372 -0.048144 0.123348
					CHANNELS 3 Zrotation Yrotation Xrotation
					End Site
					{
						OFFSET 0.000000 0.000000 0.000000
					}
				}
			}
		}
	}
	JOINT Spine
	{
		OFFSET -0.002533 0.108963 -0.026696
		CHANNELS 3 Zrotation Yrotation Xrotation
		JOINT Spine1
		{
			OFFSET 0.005487 0.135180 0.001092
			CHANNELS 3 Zrotation Yrotation Xrotation
			JOINT Spine2
			{
				OFFSET 0.001457 0.052922 0.025425
				CHANNELS 3 Zrotation Yrotation Xrotation
				JOINT Neck
				{
					OFFSET -0.002778 0.213870 -0.042857
					CHANNELS 3 Zrotation Yrotation Xrotation
					JOINT Head
					{
						OFFSET 0.005152 0.064970 0.051349
						CHANNELS 3 Zrotation Yrotation Xrotation
						End Site
						{
							OFFSET 0.000000 0.000000 0.000000
						}
					}
				}
				JOINT LeftShoulder
				{
					OFFSET 0.078845 0.121749 -0.034090
					CHANNELS 3 Zrotation Yrotation Xrotation
					JOINT LeftArm
					{
						OFFSET 0.090977 0.030469 -0.008868
						CHANNELS 3 Zrotation Yrotation Xrotation
						JOINT LeftForeArm
						{
							OFFSET 0.259612 -0.012772 -0.027456
							CHANNELS 3 Zrotation Yrotation Xrotation
							JOINT LeftHand
							{
								OFFSET 0.249234 0.008986 -0.001171
								CHANNELS 3 Zrotation Yrotation Xrotation
								End Site
								{
									OFFSET 0.000000 0.000000 0.000000
								}
							}
						}
					}
				}
				JOINT RightShoulder
				{
					OFFSET -0.081759 0.118833 -0.038615
					CHANNELS 3 Zrotation Yrotation Xrotation
					JOINT RightArm
					{
						OFFSET -0.096012 0.032551 -0.009143
						CHANNELS 3 Zrotation Yrotation Xrotation
						JOINT RightForeArm
						{
							OFFSET -0.253742 -0.013329 -0.021401
							CHANNELS 3 Zrotation Yrotation Xrotation
							JOINT RightHand
							{
								OFFSET -0.255298 0.007772 -0.005559
								CHANNELS 3 Zrotation Yrotation Xrotation
								End Site
								{
									OFFSET 0.000000 0.000000 0.000000
								}
							}
						}
					}
				}
			}
		}
	}
}
MOTION
Frames: 10
Frame Time: 0.050000
-0.045016 0.923494 0.002460 5.542257 14.811210 7.795632 -13.470738 -6.004193 -25.186499 18.285911 -5.972030 16.438388 -13.242495 -14.999909 14.264335 0.000000 0.000000 0.000000 -12.749958 -0.462908 -8.542645 -1.201763 0.293117 19.082823 -3.292232 -8.376819 -1.231966 0.000000 0.000000 0.000000 10.132742 -2.834439 15.993048 -6.897988 2.689016 -19.493925 8.034619 13.740788 25.352112 -5.606695 7.668807 -33.526184 0.000000 0.000000 0.000000 49.897502 -8.238029 25.088343 -138.711049 -38.820241 -20.667671 167.855851 -41.266770 -163.072501 0.000000 0.000000 0.000000 -111.781360 25.169319 -22.155214 -158.597185 39.438930 -109.688197 155.944148 -45.322793 177.659956 0.000000 0.000000 0.000000 
-0.051485 0.923551 -0.006723 3.607447 -1.557910 8.033931 -8.978149 -4.771549 -29.566959 14.078624 -5.099665 22.179422 -2.311887 2.324233 16.643012 0.000000 0.000000 0.000000 -12.996515 0.347521 -16.132727 -1.032836 1.139332 19.600153 0.956464 2.867411 -0.629821 0.000000 0.000000 0.000000 7.034047 -2.110470 19.227643 -8.211053 2.624209 -21.690108 6.321865 2.533180 28.214254 -7.189188 5.135921 -43.494620 0.000000 0.000000 0.000000 52.397479 2.634742 -1.128686 -156.958935 -21.353065 65.137708 145.137528 -26.329890 -60.548285 0.000000 0.000000 0.000000 -97.022590 8.326818 -3.813608 -176.506654 17.244517 156.610998 -116.980939 -13.950909 18.487208 0.000000 0.000000 0.000000 
-0.061206 0.924484 -0.014189 2.929384 -9.602485 9.000584 -6.141696 -3.594768 -32.344908 11.694017 -3.961876 23.418714 3.369365 10.632831 24.869343 0.000000 0.000000 0.000000 -11.003916 1.152003 -20.197876 -4.420891 2.341276 18.843505 4.502247 11.168628 0.905661 0.000000 0.000000 0.000000 3.982948 -1.234763 19.667205 -7.163346 2.172563 -22.491001 5.061516 1.955735 30.187818 -5.159902 3.745870 -47.265024 0.000000 0.000000 0.000000 60.049766 12.611652 -10.185785 -170.928287 -9.113363 116.194546 47.398162 -39.859399 -19.698392 0.000000 0.000000 0.000000 -100.918113 1.590752 2.960321 179.964123 19.400754 117.493284 -109.927303 19.606010 -20.410586 0.000000 0.000000 0.000000 
-0.073498 0.928361 -0.017779 0.883134 -16.983107 9.816595 -2.647623 -1.699908 -33.471349 10.167285 -2.865920 22.199252 12.785836 19.998598 40.450166 0.000000 0.000000 0.000000 -5.160618 2.331260 -22.077599 -9.832151 3.197363 14.394803 9.493510 15.422825 8.526535 0.000000 0.000000 0.000000 0.809989 -0.270017 20.743687 -5.856669 1.710492 -26.166835 4.561505 2.307953 36.156230 -5.205007 3.604636 -54.465920 0.000000 0.000000 0.000000 104.094370 23.545245 -1.776253 163.722941 -3.666990 -33.913818 -104.283070 27.199266 -74.722541 0.000000 0.000000 0.000000 -107.178636 -7.229867 10.499649 177.370250 16.128961 49.110872 -176.235617 46.574801 -151.266538 0.000000 0.000000 0.000000 
-0.085134 0.932651 -0.018909 -2.617883 -38.568332 11.805998 4.777497 2.950578 -27.078300 7.825747 -1.081369 14.111871 22.450126 23.592470 70.933399 0.000000 0.000000 0.000000 3.912331 4.922096 -24.565346 -15.796235 2.947534 6.877158 22.394307 18.949852 26.235632 0.000000 0.000000 0.000000 -6.962898 2.154060 17.390378 -2.512603 0.587912 -25.913118 -13.444728 -25.080553 42.797988 3.500468 3.509165 -62.077931 0.000000 0.000000 0.000000 138.710868 20.530703 23.702751 107.733387 -0.709080 63.179082 109.059460 -83.041927 -167.302715 0.000000 0.000000 0.000000 -114.177335 -29.247079 25.836370 176.968076 -4.511350 -158.963619 -178.810347 -3.650516 -34.631782 0.000000 0.000000 0.000000 
-0.095018 0.935791 -0.020499 -22.651106 -73.099824 29.818637 13.611768 7.500325 -10.200138 7.237904 -0.253347 6.294930 -9.046252 24.398384 87.052615 0.000000 0.000000 0.000000 18.146877 8.737680 -22.004783 -21.118553 2.710042 -0.041866 38.578610 18.797779 45.935464 0.000000 0.000000 0.000000 -12.744111 3.569600 7.795653 -2.813339 0.237976 -26.867830 -58.799623 -55.535381 70.889863 10.808976 7.800264 -53.553336 0.000000 0.000000 0.000000 125.831791 -8.707971 44.953320 108.721847 -27.945247 54.089017 24.893628 -68.992326 -55.356823 0.000000 0.000000 0.000000 -72.736903 -10.183208 9.922155 167.883616 42.256129 -103.707104 150.584028 -29.451307 62.523684 0.000000 0.000000 0.000000 
-0.102177 0.939307 -0.024638 -166.750994 -55.054425 169.541641 8.684114 10.005636 14.235533 7.242775 0.647951 0.371032 -45.253628 29.326909 56.659606 0.000000 0.000000 0.000000 27.404547 7.066541 -8.394394 -14.780579 1.474891 -6.658227 45.607399 3.635199 70.922604 0.000000 0.000000 0.000000 -9.316863 3.611794 -5.497816 -5.654865 -0.245045 -25.655167 -22.647698 -28.204194 33.609029 9.131813 5.075992 -42.431202 0.000000 0.000000 0.000000 90.027162 -22.052309 65.771288 95.497500 -34.071363 38.798854 -59.897788 -30.895620 9.061114 0.000000 0.000000 0.000000 -39.824245 12.243289 -15.227570 92.948628 55.951168 -77.349328 103.678894 26.662096 51.302463 0.000000 0.000000 0.000000 
-0.107796 0.942628 -0.031192 -173.830477 -34.854407 174.057226 -0.956939 12.430032 20.677065 8.007701 1.323871 0.561609 -25.015795 10.161945 48.136700 0.000000 0.000000 0.000000 25.591929 4.541799 -1.262879 -10.652683 2.271673 -7.069949 43.648237 -3.148685 72.984148 0.000000 0.000000 0.000000 -4.657354 4.039379 -8.789075 -6.685552 -0.223180 -25.607986 -14.392642 -12.571188 23.417924 10.245748 7.018680 -37.182051 0.000000 0.000000 0.000000 61.497485 -17.890961 72.803612 87.951231 -38.998087 28.231790 -67.105071 13.019732 -10.070815 0.000000 0.000000 0.000000 -29.467946 19.948059 -24.542156 57.159218 52.363492 -57.673743 72.352786 59.764011 33.580126 0.000000 0.000000 0.000000 
-0.113616 0.945943 -0.038773 -175.730385 -32.336878 175.198365 -2.022386 12.855800 21.269186 6.574092 3.290035 3.673193 -15.372041 4.634552 49.878270 0.000000 0.000000 0.000000 22.690455 3.217258 0.328427 -6.489720 3.157282 -6.384880 37.573665 -8.674555 66.188245 0.000000 0.000000 0.000000 -3.984880 3.945140 -8.854226 -6.749396 -0.180475 -25.068546 -12.507123 -11.056771 19.075647 9.657900 6.921013 -32.683265 0.000000 0.000000 0.000000 47.195427 -14.793264 72.023083 79.778488 -39.562265 20.796152 -60.649291 40.338612 -20.357395 0.000000 0.000000 0.000000 -21.873470 22.916360 -30.964925 44.894598 46.719676 -37.737242 48.121493 70.814283 18.358154 0.000000 0.000000 0.000000 
-0.119943 0.950956 -0.045802 -176.028819 -35.883077 175.872617 -1.140593 12.700907 21.626018 5.205534 4.141049 5.028673 -2.648527 0.284427 55.182584 0.000000 0.000000 0.000000 21.806538 2.715805 -0.611884 -5.593370 2.657642 -4.338424 29.221321 -7.680963 78.332915 0.000000 0.000000 0.000000 -4.970537 3.193748 -7.130364 -6.867208 -0.208850 -25.122693 -11.478237 -12.585855 16.135424 7.251650 4.457154 -30.967114 0.000000 0.000000 0.000000 40.165244 -12.978488 55.516397 74.714444 -51.980314 12.812266 -55.192952 63.973597 -27.675044 0.000000 0.000000 0.000000 -16.347893 23.341126 -30.800072 36.458711 44.390964 -25.316581 10.995444 78.491488 -9.002005 0.000000 0.000000 0.000000 
